<?xml version="1.0" encoding="UTF-8"?>
<svg width="30px" height="28px" viewBox="0 0 30 28" version="1.1" xmlns="http://www.w3.org/2000/svg" xmlns:xlink="http://www.w3.org/1999/xlink">
    <!-- Generator: Sketch 52.6 (67491) - http://www.bohemiancoding.com/sketch -->
    <title>ic_authentication_n@2x</title>
    <desc>Created with Sketch.</desc>
    <defs>
        <linearGradient x1="0%" y1="0%" x2="100%" y2="100%" id="linearGradient-1">
            <stop stop-color="#FF8C19" offset="0%"></stop>
            <stop stop-color="#FF3344" offset="100%"></stop>
        </linearGradient>
    </defs>
    <g id="5.0.7推文分享" stroke="none" stroke-width="1" fill="none" fill-rule="evenodd">
        <g id="推文详情分享" transform="translate(-61.000000, -1423.000000)">
            <g id="Group-3" transform="translate(0.000000, 1281.000000)">
                <g id="1" transform="translate(0.000000, 80.000000)">
                    <g id="ic_authentication_n" transform="translate(62.000000, 62.000000)">
                        <rect id="Rectangle" stroke="#979797" fill="#FFFFFF" fill-rule="nonzero" opacity="0.01" x="0.5" y="0.5" width="27" height="27"></rect>
                        <path d="M28.0561034,14.7567869 L25.2665277,17.1642424 C24.9836034,17.4084113 24.8604382,17.7899634 24.9472049,18.1534687 L25.8095825,21.7663625 C25.9378076,22.3035559 25.6062732,22.8429842 25.0690798,22.9712093 C25.0182685,22.9833376 24.966585,22.9914659 24.9145039,22.9955194 L21.2950353,23.2772254 C20.9172654,23.3066275 20.5885615,23.5470178 20.4460524,23.8981101 L19.0624858,27.3067328 C18.8547714,27.8184682 18.2715421,28.064926 17.7598066,27.8572115 C17.7064102,27.8355378 17.6549871,27.809289 17.6061118,27.7787582 L14.529745,25.8570572 C14.2055731,25.654558 13.7943267,25.654558 13.4701548,25.8570572 L10.3937472,27.7787838 C9.92534034,28.0713815 9.3084242,27.9288601 9.01582644,27.4604532 C8.98530273,27.4115891 8.95905899,27.3601786 8.93738814,27.3067953 L7.55385542,23.8986466 C7.41134012,23.5475791 7.08265364,23.3072073 6.70490478,23.2778002 L3.08658059,22.9961204 C2.53596179,22.9532557 2.12434572,22.4721423 2.16721038,21.9215235 C2.17126435,21.8694481 2.17939216,21.8177704 2.19151918,21.7669648 L3.05389141,18.1540936 C3.14066343,17.790566 3.01747755,17.4089914 2.73452035,17.1648256 L-0.0560987993,14.7567798 C-0.474231355,14.3959701 -0.520700745,13.7645127 -0.159891085,13.3463802 C-0.127896874,13.3093029 -0.093222217,13.2746261 -0.0561470296,13.2426295 L2.73337215,10.8352228 C3.01629645,10.5910539 3.13946168,10.2095018 3.05269497,9.84599642 L2.19031737,6.23310269 C2.06209229,5.69590927 2.39362664,5.15648099 2.93082006,5.02825591 C2.98163132,5.01612755 3.03331482,5.00799929 3.085396,5.00394577 L6.70489204,4.72223761 C7.08264762,4.6928366 7.41134227,4.45246319 7.55385991,4.10138995 L8.93738814,0.693252264 C9.14512299,0.181525112 9.72836218,-0.0649093424 10.2400893,0.142825505 C10.2934726,0.164496349 10.3448831,0.190740087 10.3937472,0.221263807 L13.4701548,2.14299042 C13.7943267,2.34548953 14.2055731,2.34548953 14.529745,2.14299042 L17.6061526,0.221263807 C18.0745595,-0.0713339465 18.6914757,0.0711875054 18.9840734,0.539594379 C19.0145971,0.58845846 19.0408409,0.639869024 19.0625117,0.693252264 L20.4460399,4.10138995 C20.5885576,4.45246319 20.9172522,4.6928366 21.2950078,4.72223761 L24.9145039,5.00394577 C25.4651234,5.04680092 25.8767478,5.52790721 25.8338926,6.07852675 C25.8298391,6.13060794 25.8217109,6.18229143 25.8095825,6.23310269 L24.9472049,9.84599642 C24.8604382,10.2095018 24.9836034,10.5910539 25.2665277,10.8352228 L28.0561034,13.2426782 C28.474213,13.6035145 28.5206421,14.2349749 28.1598058,14.6530845 C28.1278231,14.6901436 28.0931625,14.7248043 28.0561034,14.7567869 Z" id="徽章" fill="url(#linearGradient-1)"></path>
                        <polygon id="v" fill="#FFFFFF" points="8 8.5 11 8.5 14 17.2040619 17 8.5 20 8.5 15.3790323 20.5 12.6209677 20.5"></polygon>
                    </g>
                </g>
            </g>
        </g>
    </g>
</svg>