<?xml version="1.0" encoding="UTF-8"?>
<svg width="48px" height="48px" viewBox="0 0 48 48" version="1.1" xmlns="http://www.w3.org/2000/svg" xmlns:xlink="http://www.w3.org/1999/xlink">
    <!-- Generator: Sketch 52.6 (67491) - http://www.bohemiancoding.com/sketch -->
    <title>ic_tweet_detail_comment_more_n@2x</title>
    <desc>Created with Sketch.</desc>
    <g id="5.0.7推文分享" stroke="none" stroke-width="1" fill="none" fill-rule="evenodd">
        <g id="推文详情分享" transform="translate(-682.000000, -1381.000000)" fill-rule="nonzero">
            <g id="Group-3" transform="translate(0.000000, 1281.000000)">
                <g id="1" transform="translate(0.000000, 80.000000)">
                    <g id="ic_tweet_detail_comment_more_n" transform="translate(682.000000, 20.000000)">
                        <rect id="Rectangle" fill="#FFFFFF" opacity="0.01" x="0" y="0" width="48" height="48"></rect>
                        <path d="M11,27 C9.34314575,27 8,25.6568542 8,24 C8,22.3431458 9.34314575,21 11,21 C12.6568542,21 14,22.3431458 14,24 C14,25.6568542 12.6568542,27 11,27 Z M24,27 C22.3431458,27 21,25.6568542 21,24 C21,22.3431458 22.3431458,21 24,21 C25.6568542,21 27,22.3431458 27,24 C27,25.6568542 25.6568542,27 24,27 Z M37,27 C35.3431458,27 34,25.6568542 34,24 C34,22.3431458 35.3431458,21 37,21 C38.6568542,21 40,22.3431458 40,24 C40,25.6568542 38.6568542,27 37,27 Z" id="Oval-8-Copy-2" fill="#A7A8AB"></path>
                    </g>
                </g>
            </g>
        </g>
    </g>
</svg>