<?xml version="1.0" encoding="UTF-8"?>
<svg width="40px" height="40px" viewBox="0 0 40 40" version="1.1" xmlns="http://www.w3.org/2000/svg" xmlns:xlink="http://www.w3.org/1999/xlink">
    <!-- Generator: Sketch 52.6 (67491) - http://www.bohemiancoding.com/sketch -->
    <title>ic_tweet_detail_comment_like_n@2x</title>
    <desc>Created with Sketch.</desc>
    <g id="5.0.7推文分享" stroke="none" stroke-width="1" fill="none" fill-rule="evenodd">
        <g id="推文详情分享" transform="translate(-673.000000, -1515.000000)">
            <g id="Group-3" transform="translate(0.000000, 1281.000000)">
                <g id="1" transform="translate(0.000000, 80.000000)">
                    <g id="ic_tweet_detail_comment_like_n" transform="translate(673.000000, 154.000000)">
                        <rect id="Rectangle-9" fill="#FFFFFF" opacity="0.01" x="0" y="0" width="40" height="40"></rect>
                        <path d="M34,16.7276514 C34,11.9162607 30.336696,8 25.8404807,8 C23.6195026,8 21.5175548,8.98766542 20,10.6725214 C18.480392,8.98769364 16.3763363,8 14.1595193,8 C9.66122343,8 6,11.914116 6,16.7276514 C6,16.8890452 6.01461872,17.0331961 6.0271295,17.1515534 C6.02504893,17.1903004 6.02296837,17.2290191 6.02296837,17.2699107 C6.02296837,18.1219761 6.22333247,19.0579977 6.61784634,20.0521821 C6.63038449,20.0887278 6.64289527,20.1231852 6.657514,20.1553849 C9.14357283,26.3030787 18.7141821,33.3760138 19.1211794,33.7008614 C19.3737766,33.901002 19.6743091,34 19.9770316,34 C20.2838879,34 20.5865831,33.8967407 20.8411788,33.6923105 C21.1897559,33.4126159 29.3534637,27.3553411 32.5930712,21.6250868 C32.7162079,21.4314651 32.8080814,21.2442777 32.8894972,21.0828275 C32.9145188,21.031212 32.9374872,20.9795965 32.9646167,20.9300693 C32.9855318,20.8870328 32.9980426,20.8655005 33.0105534,20.8482859 C33.2046758,20.4587849 33.3591032,20.0973069 33.4822946,19.744408 C33.8183063,18.8363529 33.9832733,18.0272676 33.9832733,17.2719991 C33.9832733,17.213921 33.9811654,17.1622773 33.9770043,17.1192126 C33.9875166,17.0202993 34,16.8868722 34,16.7276514 Z" id="Shape" fill="#A7A8AB" fill-rule="nonzero"></path>
                    </g>
                </g>
            </g>
        </g>
    </g>
</svg>