<?xml version="1.0" encoding="UTF-8"?>
<svg width="40px" height="40px" viewBox="0 0 40 40" version="1.1" xmlns="http://www.w3.org/2000/svg" xmlns:xlink="http://www.w3.org/1999/xlink">
    <!-- Generator: Sketch 52.6 (67491) - http://www.bohemiancoding.com/sketch -->
    <title>ic_tweet_detail_location_n@2x</title>
    <desc>Created with Sketch.</desc>
    <g id="5.0.7推文分享" stroke="none" stroke-width="1" fill="none" fill-rule="evenodd">
        <g id="推文详情分享" transform="translate(-40.000000, -648.000000)" fill-rule="nonzero">
            <g id="定位" transform="translate(30.000000, 642.000000)">
                <g id="ic_tweet_detail_location_n" transform="translate(10.000000, 6.000000)">
                    <rect id="Rectangle" fill="#FFFFFF" opacity="0.01" x="0" y="0" width="40" height="40"></rect>
                    <g id="定位" transform="translate(10.000000, 8.000000)" fill="#FF3344">
                        <path d="M17.9979197,16.0020803 L10,24 L2,16 C0.735259696,14.3251716 2.13162821e-14,12.2604495 2.13162821e-14,10 C2.13162821e-14,4.4771525 4.4771525,-1.24344979e-14 10,-1.24344979e-14 C15.5228475,-1.24344979e-14 20,4.4771525 20,10 C20,12.2521463 19.2554926,14.3304037 17.9991687,16.0020811 C17.9987525,16.0020809 17.9983362,16.0020806 17.9979197,16.0020803 Z M10,15 C12.7614237,15 15,12.7614237 15,10 C15,7.23857625 12.7614237,5 10,5 C7.23857625,5 5,7.23857625 5,10 C5,12.7614237 7.23857625,15 10,15 Z" id="Oval-2"></path>
                    </g>
                </g>
            </g>
        </g>
    </g>
</svg>