<?xml version="1.0" encoding="UTF-8"?>
<svg width="60px" height="60px" viewBox="0 0 60 60" version="1.1" xmlns="http://www.w3.org/2000/svg" xmlns:xlink="http://www.w3.org/1999/xlink">
    <!-- Generator: Sketch 52.6 (67491) - http://www.bohemiancoding.com/sketch -->
    <title>wenliao logo@2x</title>
    <desc>Created with Sketch.</desc>
    <g id="5.0.7问题分享" stroke="none" stroke-width="1" fill="none" fill-rule="evenodd">
        <g id="问题详情分享-纯文本" transform="translate(-20.000000, -15.000000)" fill-rule="nonzero">
            <g id="顶部浮窗">
                <g id="wenliao-logo" transform="translate(20.000000, 15.000000)">
                    <rect id="Rectangle-15" fill="#FF4050" x="0" y="0" width="60" height="60" rx="10"></rect>
                    <g id="logo_white" transform="translate(7.000000, 7.000000)" fill="#FFFFFF">
                        <rect id="Rectangle-path" opacity="0.01" x="0" y="0" width="46" height="46"></rect>
                        <path d="M22.9961516,2.30003805 C18.4236008,2.29626532 14.0370384,4.11006004 10.8024226,7.34200921 C7.56780681,10.5739584 5.75039493,14.9590234 5.75039649,19.5315757 C5.70265916,26.5594709 9.96942837,32.8975421 16.4987814,35.4977612 C16.6797709,35.5540524 16.8557331,35.6253884 17.0248267,35.7110228 C19.6815256,36.899936 21.3911133,39.5394948 21.3895809,42.4500896 C21.3895809,43.125368 21.9370022,43.6727894 22.6122807,43.6727894 C22.9417182,43.6764317 23.2589963,43.548497 23.493762,43.3173534 L35.3653247,31.5310954 C40.2003582,26.5675475 41.5887018,19.1891887 38.888388,12.8077577 C36.1880743,6.42632665 29.9253756,2.28551975 22.9961516,2.30003805 Z M26.365685,18.8064863 L20.1100112,18.8064863 C19.2696957,18.7278699 18.6273048,18.0225744 18.6273048,17.1785894 C18.6273048,16.3346043 19.2696957,15.6293089 20.1100112,15.5506924 L32.5929238,15.5506924 C33.4332394,15.6293089 34.0756302,16.3346043 34.0756302,17.1785894 C34.0756302,18.0225744 33.4332394,18.7278699 32.5929238,18.8064863 L26.365685,18.8064863 Z M28.2850394,24.6782891 L23.8207631,24.6782891 C22.9256265,24.6782891 22.1999749,23.9526375 22.1999749,23.0575009 C22.1999749,22.1623643 22.9256265,21.4367127 23.8207631,21.4367127 L31.0005705,21.4367127 C31.8957071,21.4367127 32.6213587,22.1623643 32.6213587,23.0575009 C32.6213587,23.9526375 31.8957071,24.6782891 31.0005705,24.6782891 L28.2850394,24.6782891 Z" id="Shape"></path>
                    </g>
                </g>
            </g>
        </g>
    </g>
</svg>