<?xml version="1.0" encoding="UTF-8"?>
<svg width="460px" height="300px" viewBox="0 0 460 300" version="1.1" xmlns="http://www.w3.org/2000/svg" xmlns:xlink="http://www.w3.org/1999/xlink">
    <!-- Generator: Sketch 52.6 (67491) - http://www.bohemiancoding.com/sketch -->
    <title>空状态@2x</title>
    <desc>Created with Sketch.</desc>
    <g id="5.0.7问题分享" stroke="none" stroke-width="1" fill="none" fill-rule="evenodd">
        <g id="问题详情分享-文本+图片" transform="translate(-146.000000, -962.000000)">
            <g id="空" transform="translate(0.000000, 922.000000)">
                <g id="空状态" transform="translate(146.000000, 40.000000)">
                    <rect id="Rectangle" fill="#FFFFFF" fill-rule="nonzero" opacity="0.01" x="0" y="0" width="460" height="300"></rect>
                    <path d="M230.477488,54 C314.747981,55.375589 339.195708,18.6712331 399.438794,50 C459.68188,81.3287669 424.404987,122 424.404987,158 C424.404987,194 443.726033,229.192101 412.788578,254 C381.851122,278.807899 268.566853,258.513141 199.662734,258.513141 C130.758615,258.513141 92.0794935,277.892296 56,248 C19.9205065,218.107704 30.9759001,174.412581 39.8070399,138.20629 C48.6381798,102 26,54 68.474193,40 C110.948386,26 146.206996,52.624411 230.477488,54 Z" id="Rectangle" fill="#FAFAFC" fill-rule="nonzero"></path>
                    <g id="资源-3" transform="translate(316.083051, 153.739905) scale(-1, 1) rotate(-15.000000) translate(-316.083051, -153.739905) translate(267.083051, 96.739905)" fill="#F0F0F2">
                        <path d="M32.2742363,28.0008656 C32.2742363,28.0008656 32.4934302,1.23304324 25.5223995,0.0580427471 C18.5513688,-1.11695775 16.4972561,16.0743585 32.2742363,28.0008656 Z" id="_路径_"></path>
                        <path d="M37.9641836,42.5695647 C37.9641836,42.5695647 12.858694,26.935072 5.27550615,32.4533226 C-2.30768171,37.9715733 1.00752413,50.8535494 37.9641836,42.5695647 Z" id="_路径_2"></path>
                        <path d="M46.7148308,12.0854746 L36.8685006,42.0772684 C36.8685006,42.0772684 63.2656092,20.5873642 60.6918165,11.6134284 C58.1180239,2.63949258 48.7486901,5.88986798 46.7148308,12.0854746 Z" id="_路径_3"></path>
                        <path d="M39.1250438,49.4157391 C39.1250438,49.4157391 4.73232861,44.0609252 3.28642749,52.4122331 C1.84052636,60.7635409 9.81724263,69.6050904 39.1250438,49.4157391 Z" id="_路径_4"></path>
                        <path d="M59.5546124,21.8541872 C59.5546124,21.8541872 44.3153365,43.28991 39.3577772,49.3449159 C39.3577772,49.3449159 70.9870395,30.7613642 71.3468487,22.6557038 C71.7066579,14.5500434 63.0865128,16.9125784 59.5546124,21.8541872 Z" id="_路径_5"></path>
                        <path d="M45.4406722,56.9777351 C45.4406722,56.9777351 11.7365673,60.1509861 9.8720185,66.0016678 C8.00746967,71.8523495 10.8658664,81.7555372 45.4406722,56.9777351 Z" id="_路径_6"></path>
                        <path d="M71.3669417,31.7104204 L43.4845652,58.755827 C43.4845652,58.755827 80.7201028,46.2264254 81.4492728,36.8502351 C82.1784429,27.4740448 71.3669417,31.7104204 71.3669417,31.7104204 Z" id="_路径_7"></path>
                        <path d="M45.2353561,64.1846135 C45.2353561,64.1846135 23.5440891,79.8445401 21.4260814,86.6328372 C19.3080736,93.4211343 35.3185914,100.714385 45.2353561,64.1846135 Z" id="_路径_8"></path>
                        <path d="M46.1171055,64.0262862 C46.1171055,64.0262862 91.3865387,34.8592921 95.7343829,44.2482177 C100.082227,53.6371433 66.3706567,66.7268731 46.1171055,64.0262862 Z" id="_路径_9"></path>
                        <path d="M48.4780981,73.3611075 C48.4780981,73.3611075 22.265593,104.061662 30.1675019,111.529632 C38.0694109,118.997601 50.4224687,103.106131 48.4780981,73.3611075 Z" id="_路径_10"></path>
                        <path d="M49.0891252,71.7450554 C49.0891252,71.7450554 94.5927449,57.2584836 97.0050938,70.7331087 C99.4174426,84.2077339 49.0891252,71.7450554 49.0891252,71.7450554 Z" id="_路径_11"></path>
                        <path d="M31.187243,28.16375 C31.187243,28.16375 45.4549442,80.1334752 68.6636936,111.127804 C68.6636936,111.127804 71.7334313,111.360955 70.9472587,110.124597 C70.161086,108.888239 45.4832597,77.6738945 32.3431833,27.6563999 C32.3431833,27.6563999 30.6309259,26.219729 31.187243,28.16375 Z" id="_路径_12"></path>
                    </g>
                    <g id="资源-4" transform="translate(148.000000, 154.000000) scale(-1, 1) rotate(-270.000000) translate(-148.000000, -154.000000) translate(102.000000, 110.000000)">
                        <path d="M88.6220713,43.9914747 C88.6220713,43.9914747 80.7076308,20.8075185 61.3308972,17.6785684 L49.1725258,25.6151504 C49.1725258,25.6151504 57.1452284,14.7091947 55.7822029,13.2307657 C54.4191774,11.7523368 43.4214475,5.20813753 43.4214475,5.20813753 C43.4214475,5.20813753 36.5741226,15.0048805 36.0252327,19.0521775 C36.0252327,19.0521775 37.3790589,8.30736266 38.558099,5.91058684 C39.737139,3.51381102 34.9949142,1.22811294 31.9208241,1.26878929 C28.846734,1.30946564 27.140269,7.70503975 27.140269,7.70503975 C27.140269,7.70503975 24.0447139,2.97250265 17.4626347,1.65834358 C10.8805555,0.344184517 1.74874465,-9.09494702e-13 1.74874465,-9.09494702e-13 C1.74874465,-9.09494702e-13 -0.603202594,3.69216118 0.148071298,8.32300741 C0.899345191,12.9538536 8.55313963,13.5217581 8.55313963,13.5217581 L3.09950445,15.2051333 C3.09950445,15.2051333 2.78059635,19.9110743 3.71278926,21.7759286 C4.64498217,23.6407829 12.4413653,22.6848886 12.4413653,22.6848886 L5.79795762,32.3502156 C5.79795762,32.3502156 5.53424515,45.6013195 6.95399948,43.7458521 C8.37375382,41.8903847 15.9738858,33.6768905 15.9738858,33.6768905 C15.9738858,33.6768905 9.81650634,47.233067 9.54666102,47.7164898 C9.2768157,48.1999126 16.524309,61.9328749 23.777935,64.656626 C23.777935,64.656626 38.3955785,54.7503698 40.9315112,51.3100891 C40.9315112,51.3100891 30.7141863,62.6243729 27.7581535,64.1935414 C27.7581535,64.1935414 26.9194865,67.6353865 39.0379943,70.7956262 C51.1565022,73.9558658 55.334505,70.6391787 55.334505,70.6391787 L46.027908,76.7046485 C46.027908,76.7046485 63.7825032,89.3768967 70.4151785,87.8765651 C77.0478537,86.3762335 91.7360249,69.3156328 91.9874717,65.5765373 C92.2389185,61.8374419 88.6220713,43.9914747 88.6220713,43.9914747 Z" id="_路径_" fill="#F0F0F2"></path>
                        <path d="M87.9999623,81.5654372 C87.9999623,81.5654372 41.4241669,19.2839834 12,8 C12,8 45.2805453,29.0295352 84.9904446,82.6599352 C84.9904446,82.6599352 88.0123027,86.3082617 87.9999623,81.5654372 Z" id="_路径_2" fill="#FFFFFF"></path>
                    </g>
                    <g id="月球" transform="translate(142.000000, 60.000000)" fill-rule="nonzero">
                        <circle id="Oval-Copy-2" fill="#E8E9ED" cx="90" cy="90" r="90"></circle>
                        <circle id="Oval-Copy-2" fill="#D4D5D9" cx="64" cy="66" r="18"></circle>
                        <circle id="Oval-Copy-2" fill="#D4D5D9" cx="92" cy="18" r="14"></circle>
                        <circle id="Oval-Copy-2" fill="#D4D5D9" cx="39" cy="37" r="5"></circle>
                        <circle id="Oval-Copy-2" fill="#D4D5D9" cx="165" cy="109" r="5"></circle>
                        <circle id="Oval-Copy-2" fill="#D4D5D9" cx="40" cy="124" r="14"></circle>
                        <circle id="Oval-Copy-3" fill="#D4D5D9" cx="14" cy="82" r="8"></circle>
                        <circle id="Oval-Copy-2" fill="#D4D5D9" cx="140" cy="54" r="20"></circle>
                        <circle id="Oval-Copy-2" fill="#D4D5D9" cx="117" cy="131" r="31"></circle>
                    </g>
                    <g id="人物" transform="translate(142.000000, 30.000000)" fill-rule="nonzero">
                        <path d="M84.2249591,36 L93.4131232,36 L94.5521344,45.3697468 C94.946436,48.6133547 92.6366168,51.562463 89.3930089,51.9567645 C89.1561166,51.9855618 88.917699,52 88.6790628,52 L88.6790628,52 C85.4677798,52 82.8645206,49.3967408 82.8645206,46.1854578 C82.8645206,45.9175454 82.8830372,45.6499532 82.919938,45.3845942 L84.2249591,36 Z" id="Rectangle" fill="#FFCAAA"></path>
                        <path d="M89.1992234,44 C95.5061725,44 99.3757202,36.4317358 101.268173,25.9643846 C101.268173,16.0232591 97.4225795,8 90.3053359,8 C83.1880923,8 77.4,16.0232591 77.4,25.9643846 C80.4704076,38.0430269 82.8922744,44 89.1992234,44 Z" id="Oval" fill="#FFE2D0"></path>
                        <path d="M83.103977,16 C87.2091981,15.3311947 90.8010343,14.2982328 93.8794856,12.9011143 C93.8548103,4.65333027 91.7476766,0.529438225 87.5580845,0.529438225 C81.2736965,0.529438225 74.3125578,6.87258069 73.5090931,11.6406282 C72.8714991,15.4243393 74.4397837,21.3655118 78.2139467,29.4641459 C77.3687458,21.1568539 78.9987558,16.6688053 83.103977,16 Z" id="Oval" fill="#111111"></path>
                        <path d="M95.9101134,16.4321943 C97.9147464,14.7187054 99.5264389,13.9729766 103.63271,11.7030926 C107.738982,9.4332085 94.3376918,3.45323984 90.5840719,7.5781662 C88.0816587,10.3281171 88.8327507,17.4632923 92.8373479,28.9836918 C93.5494362,21.7583527 94.5736913,17.5745202 95.9101134,16.4321943 Z" id="Oval" fill="#111111" transform="translate(96.773364, 17.573255) scale(-1, 1) translate(-96.773364, -17.573255) "></path>
                        <path d="M140.114118,68.7179866 C141.117093,68.7179866 147.473124,64.4085076 159.182212,55.7895496 L165.459857,57.4544912 C151.683553,70.6935109 143.234973,77.8387216 140.114118,78.8901233 C136.993263,79.941525 130.150111,76.3160396 119.584663,68.013667 L126,57.4544912 C134.406437,64.9634881 139.111143,68.7179866 140.114118,68.7179866 Z" id="Rectangle" fill="#FFE7D9"></path>
                        <path d="M5.31146646,49.6530097 C7.69930808,49.6530097 11.1261133,52.6096845 15.0972887,52.7476166 C17.1821923,52.7476166 19.9697922,50.7173141 20.3957989,51.8439272 C20.8218056,52.9705403 18.1662096,54.9474498 14.2086682,54.8511659 C12.5217235,54.8101238 7.57095295,56.0980967 6.13633294,55.7963841 C4.45728905,55.4432672 0.442105661,55.4949554 0.034455162,53.8635715 C-0.373195338,52.2321876 2.92362484,49.6530097 5.31146646,49.6530097 Z" id="Rectangle" fill="#FFE7D9" transform="translate(10.220287, 52.747617) scale(-1, 1) translate(-10.220287, -52.747617) "></path>
                        <path d="M34.5294555,66.928437 C35.5324302,66.928437 41.8884613,62.618958 53.597549,54 L59.8751939,55.6649415 C46.09889,68.9039612 37.6503105,76.049172 34.5294555,77.1005737 C31.4086004,78.1519754 24.5654486,74.5264899 14,66.2241173 L20.4153373,55.6649415 C28.8217747,63.1739385 33.5264808,66.928437 34.5294555,66.928437 Z" id="Rectangle" fill="#FFE7D9" transform="translate(36.937597, 65.638923) scale(-1, 1) translate(-36.937597, -65.638923) "></path>
                        <path d="M163.311466,52 C165.699308,52 169.126113,54.9566748 173.097289,55.0946069 C175.182192,55.0946069 177.969792,53.0643044 178.395799,54.1909175 C178.821806,55.3175306 176.16621,57.2944401 172.208668,57.1981561 C170.521724,57.1571141 165.570953,58.445087 164.136333,58.1433744 C162.457289,57.7902574 158.442106,57.8419457 158.034455,56.2105618 C157.626805,54.5791778 160.923625,52 163.311466,52 Z" id="Rectangle" fill="#FFE7D9"></path>
                        <path d="M66,44.9691905 C68.7264617,43.8202883 74.346415,44.1618509 82.8598601,45.9938781 C84.2885474,48.7311714 86.2546339,50.099818 88.7581195,50.099818 C91.2616051,50.099818 93.240216,48.7311714 94.6939522,45.9938781 C103.318513,43.8167946 108.949047,43.1521685 111.585555,44 C114.222062,44.8478315 119.522981,49.4704091 127.48831,57.8677329 C127.100295,65.9262737 124.767841,70.7679771 120.49095,72.3928431 C118.05915,71.6020832 114.189344,69.6183035 108.881533,66.4415042 L106.763628,120.489558 L69.8421666,120.055396 L66,66.4415042 C61.4806814,69.0488374 57.9931989,71.032617 55.5375526,72.3928431 C52.8082101,69.6814929 50.9716689,65.05713 50.0279292,58.5197543 C57.9495147,50.6349473 63.2735383,46.1180928 66,44.9691905 Z" id="Rectangle" fill="#A7A8AB"></path>
                        <path d="M89.1561222,120.000415 L89.1561222,119.995042 C98.0137047,120.083834 103.927697,120.157602 106.898098,120.216346 C110.725176,133.699952 111.65557,150.092551 113.70418,172.192141 C115.75279,194.29173 119.734045,236.16493 112.062382,238 C106.962178,239.219974 99.3550147,206.711144 89.2408919,140.473509 C80.3229704,206.699121 72.5760064,239.207952 66,238 C56.110621,236.183412 66,129.785068 69.8415291,120 C74.4388747,120.022542 80.8770724,120.02268 89.1561221,120.000415 Z" id="Rectangle-2" fill="#FFFFFF"></path>
                        <path d="M63,234 L69,234 C70.6568542,234 72,235.343146 72,237 L72,242 L60,242 L60,237 C60,235.343146 61.3431458,234 63,234 Z" id="Rectangle" fill="#080059"></path>
                        <path d="M109,234 L115,234 C116.656854,234 118,235.343146 118,237 L118,242 L106,242 L106,237 C106,235.343146 107.343146,234 109,234 Z" id="Rectangle" fill="#080059"></path>
                    </g>
                </g>
            </g>
        </g>
    </g>
</svg>